<svg width="263" height="37" viewBox="0 0 263 37" fill="none" xmlns="http://www.w3.org/2000/svg">
<path d="M94.1837 31.1904C94.4062 31.7064 94.0297 32.2833 93.4696 32.2833H89.3501C89.0421 32.2833 88.762 32.1004 88.6376 31.8158L82.1129 23.4714C81.8671 23.1571 81.7348 22.7709 81.7348 22.3722V19.3312C81.7348 18.9966 81.9822 18.712 82.3135 18.6761C83.3403 18.5635 84.1758 18.2524 84.8183 17.7458C85.649 17.0922 86.0644 15.9868 86.0644 14.4296C86.0644 12.8723 85.7035 11.8294 84.9847 11.1337C84.2644 10.4395 83.1723 10.0908 81.7053 10.0908H77.1594C76.3007 10.0908 75.6037 10.7913 75.6037 11.6543V31.5031C75.6037 31.9347 75.2552 32.2849 74.8259 32.2849H70.7779C70.3485 32.2849 70 31.9347 70 31.5031V6.98099C70 6.11793 70.697 5.41748 71.5557 5.41748H82.8269C85.8979 5.41748 88.1537 6.23051 89.5928 7.85812C91.0303 9.48418 91.7506 11.6747 91.7506 14.428C91.7506 16.2354 91.287 17.7927 90.3598 19.0998C89.5788 20.2021 88.5302 21.0448 87.211 21.6327C86.8329 21.8015 86.7178 22.2847 86.9838 22.6036C88.748 24.7269 94.1853 31.1904 94.1853 31.1904H94.1837Z" fill="#A2F1DA"/>
<path d="M107.191 32.6992C98.5289 32.6992 94.1993 28.1244 94.1993 18.9747C94.1993 14.0527 95.2914 10.4926 97.4787 8.29589C99.6645 6.09915 102.902 5 107.191 5C111.48 5 114.718 6.09915 116.904 8.29589C119.089 10.4926 120.183 14.0527 120.183 18.9747C120.183 28.1244 115.852 32.6992 107.191 32.6992ZM107.191 27.9023C109.708 27.9023 111.556 27.1722 112.733 25.7119C113.909 24.2515 114.497 22.0063 114.497 18.9747C114.497 15.61 113.909 13.2382 112.733 11.8623C111.556 10.4864 109.708 9.79686 107.191 9.79686C104.674 9.79686 102.826 10.4848 101.65 11.8623C100.474 13.2382 99.8854 15.61 99.8854 18.9747C99.8854 22.0063 100.474 24.2515 101.65 25.7119C102.826 27.1722 104.672 27.9023 107.191 27.9023Z" fill="#A2F1DA"/>
<path d="M132.388 32.6992C130.672 32.6992 129.074 32.5741 127.593 32.324C126.569 32.1504 125.64 31.9253 124.808 31.6454C124.177 31.4328 123.753 30.8339 123.753 30.1648V28.4824C123.753 27.4317 124.761 26.6859 125.763 26.9877C126.386 27.1753 127.031 27.341 127.697 27.4865C129.108 27.7929 130.491 27.9446 131.848 27.9446C133.785 27.9446 135.21 27.7648 136.123 27.402C137.036 27.0408 137.494 26.22 137.494 24.9411C137.494 24.1343 137.299 23.4948 136.912 23.0226C136.524 22.5504 135.854 22.1252 134.899 21.7499C133.943 21.3747 132.595 20.951 130.852 20.4772C128.057 19.6986 126.092 18.7245 124.958 17.5566C123.822 16.3886 123.256 14.7766 123.256 12.7175C123.256 10.2425 124.155 8.33654 125.953 7.00286C127.752 5.66762 130.367 5 133.799 5C135.403 5 136.898 5.11101 138.282 5.33303C139.108 5.46593 139.841 5.61446 140.479 5.77707C141.167 5.95218 141.644 6.57758 141.644 7.29055V8.951C141.644 9.97823 140.677 10.724 139.69 10.4614C138.026 10.0189 136.311 9.79686 134.547 9.79686C132.783 9.79686 131.434 9.98448 130.438 10.3597C129.443 10.735 128.943 11.5214 128.943 12.7175C128.943 13.4133 129.122 13.9683 129.483 14.3858C129.842 14.8032 130.459 15.1785 131.33 15.5115C132.201 15.8445 133.425 16.2213 135.003 16.6372C137.189 17.222 138.877 17.9162 140.067 18.723C141.257 19.5297 142.08 20.4475 142.537 21.4763C142.993 22.5051 143.222 23.6605 143.222 24.9395C143.222 27.2754 142.335 29.1532 140.565 30.5713C138.793 31.9894 136.067 32.6992 132.388 32.6992Z" fill="#A2F1DA"/>
<path d="M151.052 32.1182L156.697 5.25232H168.445C170.935 5.25232 172.678 5.86365 173.675 7.08788C174.671 8.31211 174.934 10.0367 174.464 12.26C174.132 13.7625 173.551 15.0274 172.72 16.0562C171.889 17.085 170.879 17.837 169.689 18.3092C171.018 18.6157 171.985 19.2692 172.595 20.2699C173.204 21.2705 173.314 22.6902 172.927 24.5242C172.373 27.1384 171.321 29.0584 169.772 30.281C168.222 31.5053 166.161 32.1166 163.588 32.1166H151.052V32.1182ZM153.707 30.3233H163.753C165.717 30.3233 167.261 29.8714 168.381 28.9677C169.501 28.064 170.283 26.5552 170.727 24.4413C171.086 22.7168 170.914 21.4034 170.209 20.4997C169.503 19.596 167.933 19.1441 165.498 19.1441H156.075L153.709 30.3248L153.707 30.3233ZM156.447 17.3492H166.119C168 17.3492 169.419 16.8833 170.374 15.9514C171.329 15.0196 171.957 13.8313 172.262 12.3851C172.511 11.2453 172.574 10.279 172.449 9.48631C172.325 8.69361 171.889 8.09635 171.141 7.69296C170.394 7.28958 169.204 7.08788 167.57 7.08788H158.605L156.445 17.3508L156.447 17.3492Z" fill="#A2F1DA"/>
<path d="M180.231 32.5341C179.123 32.5341 178.306 32.2277 177.782 31.6163C177.256 31.005 177.16 29.9059 177.491 28.3204L182.637 4H184.92L179.773 28.2376C179.579 29.1272 179.573 29.7401 179.753 30.0731C179.934 30.4062 180.355 30.5735 181.02 30.5735C181.628 30.5735 182.264 30.4906 182.928 30.3233L182.513 32.2417C182.126 32.3528 181.73 32.4294 181.331 32.4716C180.929 32.5138 180.562 32.5341 180.231 32.5341Z" fill="#A2F1DA"/>
<path d="M195.34 32.5341C192.02 32.5341 189.819 31.6585 188.741 29.9058C187.661 28.1531 187.468 25.5952 188.159 22.2306C188.877 18.894 190.124 16.3424 191.894 14.5756C193.664 12.8104 196.266 11.927 199.698 11.927C203.129 11.927 205.203 12.8104 206.339 14.5756C207.473 16.3424 207.68 18.894 206.961 22.2306C206.269 25.5952 205.037 28.1547 203.266 29.9058C201.494 31.6585 198.853 32.5341 195.338 32.5341H195.34ZM195.755 30.5735C198.385 30.5735 200.376 29.8918 201.732 28.5299C203.089 27.1681 204.071 25.0668 204.679 22.2306C205.287 19.4225 205.225 17.3368 204.492 15.9734C203.758 14.6116 202.022 13.9299 199.282 13.9299C196.543 13.9299 194.702 14.6116 193.347 15.9734C191.99 17.3368 191.009 19.4225 190.401 22.2306C190.013 24.1224 189.895 25.6859 190.047 26.9242C190.2 28.1625 190.732 29.0803 191.645 29.6776C192.558 30.2764 193.927 30.575 195.754 30.575L195.755 30.5735Z" fill="#A2F1DA"/>
<path d="M218.668 32.5341C215.403 32.5341 213.155 31.6304 211.922 29.823C210.69 28.0155 210.421 25.4842 211.113 22.2305C211.832 18.7548 213.279 16.1688 215.451 14.4708C217.623 12.7744 220.258 11.9254 223.359 11.9254C224.631 11.9254 225.635 12.0161 226.367 12.1959C227.1 12.3773 227.813 12.6478 228.505 13.0089L228.089 14.8867C226.789 14.1925 225.211 13.8438 223.357 13.8438C220.81 13.8438 218.666 14.5115 216.922 15.8467C215.179 17.1819 213.988 19.3099 213.352 22.229C212.744 25.0933 212.875 27.2134 213.747 28.5909C214.618 29.9668 216.576 30.6563 219.62 30.6563C220.505 30.6563 221.419 30.5594 222.36 30.3639C223.299 30.1701 224.186 29.9043 225.017 29.5712L224.644 31.4897C223.785 31.8227 222.859 32.0807 221.862 32.262C220.866 32.4434 219.801 32.5325 218.666 32.5325L218.668 32.5341Z" fill="#A2F1DA"/>
<path d="M228.547 32.1182L234.482 4.00159H236.764L232.987 21.8569L245.108 12.3461H247.847L238.135 20.0636L244.154 32.1198H241.746L236.349 21.3566L232.447 24.443L230.828 32.1182H228.545H228.547Z" fill="#A2F1DA"/>
<path d="M252.913 32.5341C251.751 32.5341 250.657 32.4575 249.633 32.3042C248.61 32.151 247.751 31.9493 247.06 31.6992L247.475 29.6557C249.135 30.2686 250.99 30.5734 253.037 30.5734C254.974 30.5734 256.413 30.317 257.354 29.8011C258.294 29.2867 258.904 28.3892 259.181 27.1103C259.374 26.2206 259.311 25.5452 258.994 25.0871C258.675 24.6274 258.129 24.2318 257.354 23.8988C256.579 23.5658 255.57 23.1765 254.324 22.7309C253.3 22.3415 252.379 21.9585 251.564 21.5832C250.747 21.208 250.153 20.6795 249.779 19.9978C249.406 19.3161 249.344 18.364 249.593 17.1397C249.952 15.4152 250.789 14.1159 252.104 13.2388C253.418 12.3632 255.347 11.9254 257.894 11.9254C258.89 11.9254 259.825 11.988 260.696 12.113C261.567 12.2381 262.336 12.4117 263 12.6353L262.544 14.6788C261.049 14.1784 259.473 13.9283 257.812 13.9283C255.847 13.9283 254.414 14.1722 253.515 14.6584C252.616 15.1447 252.055 15.9593 251.833 17.0991C251.667 17.8777 251.709 18.4828 251.957 18.9143C252.206 19.3458 252.684 19.7148 253.39 20.0197C254.097 20.3262 255.016 20.6733 256.15 21.0626C257.533 21.5363 258.661 22.0085 259.534 22.4807C260.405 22.9544 261.007 23.5439 261.34 24.2537C261.671 24.9636 261.713 25.9157 261.464 27.1118C261.049 29.0584 260.095 30.4484 258.6 31.2833C257.105 32.1182 255.21 32.5341 252.914 32.5341H252.913Z" fill="#A2F1DA"/>
<path d="M36.814 24.0732C38.1215 25.2488 39.8472 25.9648 41.7413 25.9648C45.861 25.9648 49.1935 22.578 49.1323 18.4223C49.0728 14.4391 45.8474 11.1839 41.8841 11.1087C39.9356 11.0711 38.1555 11.7939 36.8157 12.9986L36.6881 11.5667C36.5011 10.6388 36.0335 9.781 35.3415 9.118L27.4523 1.55669L27.1752 1.29012C26.3115 0.461368 25.1621 0 23.9685 0H12.8777C11.691 0 10.5501 0.456242 9.68806 1.27474L9.39052 1.55669L1.42141 9.118C0.630795 9.86815 0.13092 10.8678 0 11.9409V24.297C0.0408062 24.7413 0.119018 25.1821 0.241436 25.611C0.290744 25.7819 0.345152 25.9528 0.409762 26.1185C0.59679 26.4107 0.705607 26.7576 0.705607 27.1319C0.705607 27.2634 0.692004 27.3933 0.666501 27.5163C0.273741 29.4131 0.00170026 31.3337 0.00170026 33.2698V35.5851C0.00170026 36.366 0.632495 37 1.40951 37H10.5926H12.3898C12.9713 37 13.2994 36.3336 12.9509 35.8671C12.5377 35.3134 12.2078 34.6949 11.98 34.0302C11.7437 33.3432 11.6162 32.605 11.6162 31.8378C11.6162 28.0392 14.7514 24.9771 18.5634 25.1223C22.139 25.259 24.9921 28.2477 24.9904 31.8429C24.9904 32.6085 24.8612 33.3449 24.6265 34.0302C24.3987 34.6966 24.0688 35.3152 23.6557 35.8671C23.3071 36.3336 23.6353 37 24.2168 37H26.1942H35.3738C36.1509 37 36.7817 36.366 36.7817 35.5851L36.7919 32.0241C36.7493 31.2107 36.6541 30.4024 36.5198 29.5993C36.2699 28.1178 36.2971 26.6021 36.5963 25.1309L36.8157 24.0526" fill="#41BF9A"/>
</svg>
